<?xml version="1.0" standalone="no"?>
<!DOCTYPE svg PUBLIC "-//W3C//DTD SVG 20010904//EN"
 "http://www.w3.org/TR/2001/REC-SVG-20010904/DTD/svg10.dtd">
<svg version="1.0" xmlns="http://www.w3.org/2000/svg"
 width="210.000000pt" height="210.000000pt" viewBox="0 0 210.000000 210.000000"
 preserveAspectRatio="xMidYMid meet">
<metadata>
Created by potrace 1.11, written by Peter Selinger 2001-2013
</metadata>
<g transform="translate(0.000000,210.000000) scale(0.100000,-0.100000)"
fill="#000000" stroke="none">
<path d="M1818 1889 c-6 -4 -8 -126 -6 -332 3 -226 1 -324 -7 -320 -5 4 -29
22 -53 42 -26 20 -46 31 -50 25 -13 -19 -106 -139 -112 -144 -3 -3 -82 -101
-174 -217 -93 -117 -169 -213 -170 -213 -1 0 -2 24 -2 53 -2 75 -15 541 -19
682 -2 66 -5 180 -6 253 -3 111 -6 132 -19 133 -54 3 -108 1 -116 -4 -6 -3 -9
-32 -8 -64 1 -32 5 -173 9 -313 3 -140 8 -311 10 -380 6 -215 17 -640 19 -745
1 -56 6 -106 10 -113 6 -10 59 -11 128 -3 4 1 5 45 3 98 -6 161 -7 324 -2 329
2 3 18 -7 35 -21 16 -14 34 -25 38 -24 5 0 77 86 159 191 83 105 157 198 165
208 8 10 47 59 85 109 39 49 73 90 76 91 3 0 6 -28 6 -62 0 -35 2 -193 3 -351
l3 -288 71 3 70 3 -3 245 c-1 135 -4 376 -6 535 -2 160 -4 360 -4 445 l-1 155
-61 0 c-33 0 -65 -3 -71 -6z"/>
<path d="M278 1869 c-244 -34 -334 -244 -212 -496 43 -91 136 -190 209 -222
65 -29 157 -25 207 9 106 74 183 198 214 345 l6 30 10 -25 c9 -25 42 -169 53
-230 3 -19 8 -42 10 -50 2 -8 7 -37 11 -65 3 -27 8 -59 10 -70 3 -11 11 -82
20 -157 l15 -137 -47 -93 c-25 -51 -73 -134 -105 -183 -89 -138 -104 -177
-103 -265 3 -308 334 -332 413 -30 23 88 30 177 29 365 -1 182 0 193 25 263
25 67 25 73 9 78 -56 18 -62 24 -63 59 -1 19 -2 38 -3 43 -1 4 -5 34 -9 67 -5
33 -12 83 -17 110 -5 28 -12 66 -15 85 -44 265 -124 482 -190 512 -16 7 -25
19 -25 35 0 22 -4 23 -67 24 -38 1 -126 2 -198 4 -72 1 -156 -2 -187 -6z m272
-181 c0 -27 -53 -235 -66 -261 -27 -50 -94 -117 -120 -117 -56 0 -156 146
-170 248 -11 82 19 118 111 134 44 8 245 4 245 -4z m284 -1300 c-11 -102 -50
-205 -70 -185 -3 3 -7 25 -9 49 -3 38 3 55 36 112 22 36 42 66 44 66 2 0 2
-19 -1 -42z"/>
</g>
</svg>
